<svg width="16" height="16" viewBox="0 0 16 16" fill="none"
    xmlns="http://www.w3.org/2000/svg">
    <g clip-path="url(#clip0_60_7)">
        <path d="M12 13C12 14.105 10.88 15 9.5 15C8.12 15 7 14.105 7 13C7 11.895 8.12 11 9.5 11C10.88 11 12 11.895 12 13Z" fill="#F9F9F9"/>
        <path fill-rule="evenodd" clip-rule="evenodd" d="M12 3V13H11V3H12Z" fill="#F9F9F9"/>
        <path d="M11 2.82001C11.0001 2.58892 11.0803 2.365 11.2269 2.18634C11.3735 2.00768 11.5774 1.8853 11.804 1.84001L14.804 1.24001C14.949 1.21102 15.0987 1.21456 15.2422 1.25037C15.3856 1.28619 15.5194 1.35338 15.6338 1.44712C15.7482 1.54085 15.8404 1.65879 15.9037 1.79244C15.967 1.92609 15.9999 2.07212 16 2.22001V4.00001L11 5.00001V2.82001Z" fill="#F9F9F9"/>
        <path fill-rule="evenodd" clip-rule="evenodd" d="M0 11.5C0 11.3674 0.0526784 11.2402 0.146447 11.1464C0.240215 11.0527 0.367392 11 0.5 11H4C4.13261 11 4.25979 11.0527 4.35355 11.1464C4.44732 11.2402 4.5 11.3674 4.5 11.5C4.5 11.6326 4.44732 11.7598 4.35355 11.8536C4.25979 11.9473 4.13261 12 4 12H0.5C0.367392 12 0.240215 11.9473 0.146447 11.8536C0.0526784 11.7598 0 11.6326 0 11.5ZM0 7.5C0 7.36739 0.0526784 7.24021 0.146447 7.14645C0.240215 7.05268 0.367392 7 0.5 7H8C8.13261 7 8.25979 7.05268 8.35355 7.14645C8.44732 7.24021 8.5 7.36739 8.5 7.5C8.5 7.63261 8.44732 7.75979 8.35355 7.85355C8.25979 7.94732 8.13261 8 8 8H0.5C0.367392 8 0.240215 7.94732 0.146447 7.85355C0.0526784 7.75979 0 7.63261 0 7.5ZM0 3.5C0 3.36739 0.0526784 3.24021 0.146447 3.14645C0.240215 3.05268 0.367392 3 0.5 3H8C8.13261 3 8.25979 3.05268 8.35355 3.14645C8.44732 3.24021 8.5 3.36739 8.5 3.5C8.5 3.63261 8.44732 3.75979 8.35355 3.85355C8.25979 3.94732 8.13261 4 8 4H0.5C0.367392 4 0.240215 3.94732 0.146447 3.85355C0.0526784 3.75979 0 3.63261 0 3.5Z" fill="#F9F9F9"/>
        <g clip-path="url(#clip1_60_7)">
            <path fill-rule="evenodd" clip-rule="evenodd" d="M14 12C14.0442 12 14.0866 12.0176 14.1179 12.0488C14.1491 12.0801 14.1667 12.1225 14.1667 12.1667V13.8333H15.8333C15.8775 13.8333 15.9199 13.8509 15.9512 13.8821C15.9824 13.9134 16 13.9558 16 14C16 14.0442 15.9824 14.0866 15.9512 14.1179C15.9199 14.1491 15.8775 14.1667 15.8333 14.1667H14.1667V15.8333C14.1667 15.8775 14.1491 15.9199 14.1179 15.9512C14.0866 15.9824 14.0442 16 14 16C13.9558 16 13.9134 15.9824 13.8821 15.9512C13.8509 15.9199 13.8333 15.8775 13.8333 15.8333V14.1667H12.1667C12.1225 14.1667 12.0801 14.1491 12.0488 14.1179C12.0176 14.0866 12 14.0442 12 14C12 13.9558 12.0176 13.9134 12.0488 13.8821C12.0801 13.8509 12.1225 13.8333 12.1667 13.8333H13.8333V12.1667C13.8333 12.1225 13.8509 12.0801 13.8821 12.0488C13.9134 12.0176 13.9558 12 14 12Z" fill="#F9F9F9"/>
        </g>
    </g>
    <defs>
        <clipPath id="clip0_60_7">
            <rect width="16" height="16" fill="white"/>
        </clipPath>
        <clipPath id="clip1_60_7">
            <rect width="5.33333" height="5.33333" fill="white" transform="translate(10.6667 10.6667)"/>
        </clipPath>
    </defs>
</svg>
