<svg width="24" height="24" viewBox="0 0 24 24" fill="none" xmlns="http://www.w3.org/2000/svg">
<g clip-path="url(#clip0_22_277)">
<rect width="24" height="24" rx="12" fill="#1969F6"/>
<path d="M10.1941 6.97928C10.0335 6.83056 9.81949 6.75 9.6 6.75C9.38051 6.75 9.1665 6.83056 9.00588 6.97928C8.84462 7.1286 8.75 7.33543 8.75 7.55556V16.4444C8.75 16.6646 8.84462 16.8714 9.00588 17.0207C9.16651 17.1694 9.38051 17.25 9.6 17.25C9.81949 17.25 10.0335 17.1694 10.1941 17.0207C10.3554 16.8714 10.45 16.6646 10.45 16.4444V7.55556C10.45 7.33543 10.3554 7.1286 10.1941 6.97928ZM14.9941 6.97928C14.8335 6.83056 14.6195 6.75 14.4 6.75C14.1805 6.75 13.9665 6.83056 13.8059 6.97928C13.6446 7.1286 13.55 7.33543 13.55 7.55556V16.4444C13.55 16.6646 13.6446 16.8714 13.8059 17.0207C13.9665 17.1694 14.1805 17.25 14.4 17.25C14.6195 17.25 14.8335 17.1694 14.9941 17.0207C15.1554 16.8714 15.25 16.6646 15.25 16.4444V7.55556C15.25 7.33543 15.1554 7.1286 14.9941 6.97928Z" fill="#F9F9F9" stroke="#F9F9F9" stroke-width="0.5"/>
</g>
<defs>
<clipPath id="clip0_22_277">
<rect width="24" height="24" fill="white"/>
</clipPath>
</defs>
</svg>
