<svg width="24" height="24" viewBox="0 0 24 24" fill="none" xmlns="http://www.w3.org/2000/svg">
<rect width="24" height="24" rx="12" fill="#F9F9F9"/>
<path fill-rule="evenodd" clip-rule="evenodd" d="M12 17.2501C12.0994 17.2501 12.1948 17.2106 12.2652 17.1402C12.3355 17.0699 12.375 16.9745 12.375 16.8751V8.03031L14.7345 10.3906C14.8049 10.461 14.9004 10.5005 15 10.5005C15.0996 10.5005 15.1951 10.461 15.2655 10.3906C15.3359 10.3201 15.3755 10.2246 15.3755 10.1251C15.3755 10.0255 15.3359 9.92997 15.2655 9.85956L12.2655 6.85956C12.2307 6.82464 12.1893 6.79693 12.1437 6.77803C12.0982 6.75912 12.0493 6.74939 12 6.74939C11.9507 6.74939 11.9018 6.75912 11.8563 6.77803C11.8107 6.79693 11.7693 6.82464 11.7345 6.85956L8.73449 9.85956C8.69962 9.89443 8.67196 9.93582 8.65309 9.98137C8.63422 10.0269 8.62451 10.0758 8.62451 10.1251C8.62451 10.2246 8.66407 10.3201 8.73449 10.3906C8.8049 10.461 8.9004 10.5005 8.99999 10.5005C9.09957 10.5005 9.19507 10.461 9.26549 10.3906L11.625 8.03031V16.8751C11.625 16.9745 11.6645 17.0699 11.7348 17.1402C11.8051 17.2106 11.9005 17.2501 12 17.2501Z" fill="#111111"/>
</svg>
